<mxfile host="app.diagrams.net" modified="2021-05-20T07:55:01.159Z" agent="5.0 (Windows)" etag="XlS_cLQqJFy0VK9s5dAx" version="14.6.13" type="github">
  <diagram id="R2lEEEUBdFMjLlhIrx00" name="Page-1">
    <mxGraphModel dx="1662" dy="1835" grid="1" gridSize="10" guides="1" tooltips="1" connect="1" arrows="1" fold="1" page="1" pageScale="1" pageWidth="850" pageHeight="1100" math="0" shadow="0" extFonts="Permanent Marker^https://fonts.googleapis.com/css?family=Permanent+Marker">
      <root>
        <mxCell id="0" />
        <mxCell id="1" parent="0" />
        <mxCell id="dBJsbUOAqXaFhT0gafD--16" style="edgeStyle=orthogonalEdgeStyle;rounded=0;orthogonalLoop=1;jettySize=auto;html=1;exitX=0;exitY=0.5;exitDx=0;exitDy=0;entryX=1;entryY=0.5;entryDx=0;entryDy=0;endArrow=none;endFill=0;" edge="1" parent="1" source="dBJsbUOAqXaFhT0gafD--1" target="dBJsbUOAqXaFhT0gafD--2">
          <mxGeometry relative="1" as="geometry" />
        </mxCell>
        <mxCell id="dBJsbUOAqXaFhT0gafD--42" style="edgeStyle=orthogonalEdgeStyle;rounded=0;orthogonalLoop=1;jettySize=auto;html=1;exitX=0.5;exitY=1;exitDx=0;exitDy=0;entryX=0;entryY=0.5;entryDx=0;entryDy=0;endArrow=none;endFill=0;" edge="1" parent="1" source="dBJsbUOAqXaFhT0gafD--1" target="dBJsbUOAqXaFhT0gafD--25">
          <mxGeometry relative="1" as="geometry" />
        </mxCell>
        <mxCell id="dBJsbUOAqXaFhT0gafD--77" style="edgeStyle=orthogonalEdgeStyle;rounded=0;orthogonalLoop=1;jettySize=auto;html=1;exitX=0;exitY=1;exitDx=0;exitDy=0;entryX=0.5;entryY=0;entryDx=0;entryDy=0;endArrow=none;endFill=0;" edge="1" parent="1" source="dBJsbUOAqXaFhT0gafD--1" target="dBJsbUOAqXaFhT0gafD--43">
          <mxGeometry relative="1" as="geometry" />
        </mxCell>
        <mxCell id="dBJsbUOAqXaFhT0gafD--93" style="edgeStyle=orthogonalEdgeStyle;rounded=0;orthogonalLoop=1;jettySize=auto;html=1;exitX=0;exitY=0.75;exitDx=0;exitDy=0;endArrow=none;endFill=0;" edge="1" parent="1" source="dBJsbUOAqXaFhT0gafD--1">
          <mxGeometry relative="1" as="geometry">
            <mxPoint x="660" y="250" as="targetPoint" />
          </mxGeometry>
        </mxCell>
        <mxCell id="dBJsbUOAqXaFhT0gafD--95" style="edgeStyle=orthogonalEdgeStyle;rounded=0;orthogonalLoop=1;jettySize=auto;html=1;exitX=0;exitY=0;exitDx=0;exitDy=0;entryX=0.5;entryY=1;entryDx=0;entryDy=0;endArrow=none;endFill=0;" edge="1" parent="1" source="dBJsbUOAqXaFhT0gafD--1" target="dBJsbUOAqXaFhT0gafD--17">
          <mxGeometry relative="1" as="geometry" />
        </mxCell>
        <mxCell id="dBJsbUOAqXaFhT0gafD--96" style="edgeStyle=orthogonalEdgeStyle;rounded=0;orthogonalLoop=1;jettySize=auto;html=1;exitX=0;exitY=0.75;exitDx=0;exitDy=0;entryX=1;entryY=0.5;entryDx=0;entryDy=0;endArrow=none;endFill=0;" edge="1" parent="1" source="dBJsbUOAqXaFhT0gafD--1" target="dBJsbUOAqXaFhT0gafD--91">
          <mxGeometry relative="1" as="geometry" />
        </mxCell>
        <mxCell id="dBJsbUOAqXaFhT0gafD--123" style="edgeStyle=orthogonalEdgeStyle;rounded=0;orthogonalLoop=1;jettySize=auto;html=1;exitX=0.25;exitY=1;exitDx=0;exitDy=0;entryX=0.5;entryY=0;entryDx=0;entryDy=0;endArrow=none;endFill=0;" edge="1" parent="1" source="dBJsbUOAqXaFhT0gafD--1" target="dBJsbUOAqXaFhT0gafD--121">
          <mxGeometry relative="1" as="geometry" />
        </mxCell>
        <mxCell id="dBJsbUOAqXaFhT0gafD--1" value="Customer" style="rounded=1;arcSize=10;whiteSpace=wrap;html=1;align=center;fillColor=#dae8fc;strokeColor=#6c8ebf;" vertex="1" parent="1">
          <mxGeometry x="660" y="190" width="100" height="40" as="geometry" />
        </mxCell>
        <mxCell id="dBJsbUOAqXaFhT0gafD--14" style="edgeStyle=orthogonalEdgeStyle;rounded=0;orthogonalLoop=1;jettySize=auto;html=1;exitX=0;exitY=0.5;exitDx=0;exitDy=0;endArrow=none;endFill=0;" edge="1" parent="1" source="dBJsbUOAqXaFhT0gafD--2" target="dBJsbUOAqXaFhT0gafD--3">
          <mxGeometry relative="1" as="geometry" />
        </mxCell>
        <mxCell id="dBJsbUOAqXaFhT0gafD--2" value="Login" style="shape=rhombus;perimeter=rhombusPerimeter;whiteSpace=wrap;html=1;align=center;" vertex="1" parent="1">
          <mxGeometry x="470" y="180" width="120" height="60" as="geometry" />
        </mxCell>
        <mxCell id="dBJsbUOAqXaFhT0gafD--3" value="User" style="rounded=1;arcSize=10;whiteSpace=wrap;html=1;align=center;fillColor=#dae8fc;strokeColor=#6c8ebf;" vertex="1" parent="1">
          <mxGeometry x="300" y="190" width="100" height="40" as="geometry" />
        </mxCell>
        <mxCell id="dBJsbUOAqXaFhT0gafD--9" style="edgeStyle=orthogonalEdgeStyle;rounded=0;orthogonalLoop=1;jettySize=auto;html=1;exitX=0.5;exitY=1;exitDx=0;exitDy=0;entryX=0.5;entryY=0;entryDx=0;entryDy=0;endArrow=none;endFill=0;" edge="1" parent="1" source="dBJsbUOAqXaFhT0gafD--4" target="dBJsbUOAqXaFhT0gafD--3">
          <mxGeometry relative="1" as="geometry" />
        </mxCell>
        <mxCell id="dBJsbUOAqXaFhT0gafD--4" value="UserID" style="ellipse;whiteSpace=wrap;html=1;align=center;fontStyle=4;" vertex="1" parent="1">
          <mxGeometry x="300" y="90" width="100" height="40" as="geometry" />
        </mxCell>
        <mxCell id="dBJsbUOAqXaFhT0gafD--12" style="edgeStyle=orthogonalEdgeStyle;rounded=0;orthogonalLoop=1;jettySize=auto;html=1;entryX=0.75;entryY=1;entryDx=0;entryDy=0;endArrow=none;endFill=0;" edge="1" parent="1" source="dBJsbUOAqXaFhT0gafD--7" target="dBJsbUOAqXaFhT0gafD--3">
          <mxGeometry relative="1" as="geometry" />
        </mxCell>
        <mxCell id="dBJsbUOAqXaFhT0gafD--7" value="LastLoginDate" style="ellipse;whiteSpace=wrap;html=1;align=center;" vertex="1" parent="1">
          <mxGeometry x="190" y="230" width="100" height="40" as="geometry" />
        </mxCell>
        <mxCell id="dBJsbUOAqXaFhT0gafD--13" style="edgeStyle=orthogonalEdgeStyle;rounded=0;orthogonalLoop=1;jettySize=auto;html=1;exitX=1;exitY=0.5;exitDx=0;exitDy=0;entryX=0.9;entryY=1;entryDx=0;entryDy=0;entryPerimeter=0;endArrow=none;endFill=0;" edge="1" parent="1" source="dBJsbUOAqXaFhT0gafD--8" target="dBJsbUOAqXaFhT0gafD--3">
          <mxGeometry relative="1" as="geometry" />
        </mxCell>
        <mxCell id="dBJsbUOAqXaFhT0gafD--8" value="ActiveSate" style="ellipse;whiteSpace=wrap;html=1;align=center;" vertex="1" parent="1">
          <mxGeometry x="200" y="280" width="100" height="40" as="geometry" />
        </mxCell>
        <mxCell id="dBJsbUOAqXaFhT0gafD--17" value="CustomerID" style="ellipse;whiteSpace=wrap;html=1;align=center;fontStyle=4;" vertex="1" parent="1">
          <mxGeometry x="510" y="20" width="100" height="40" as="geometry" />
        </mxCell>
        <mxCell id="dBJsbUOAqXaFhT0gafD--29" value="" style="edgeStyle=orthogonalEdgeStyle;rounded=0;orthogonalLoop=1;jettySize=auto;html=1;endArrow=none;endFill=0;" edge="1" parent="1" source="dBJsbUOAqXaFhT0gafD--19" target="dBJsbUOAqXaFhT0gafD--1">
          <mxGeometry relative="1" as="geometry" />
        </mxCell>
        <mxCell id="dBJsbUOAqXaFhT0gafD--19" value="UserName" style="ellipse;whiteSpace=wrap;html=1;align=center;" vertex="1" parent="1">
          <mxGeometry x="610" width="100" height="40" as="geometry" />
        </mxCell>
        <mxCell id="dBJsbUOAqXaFhT0gafD--30" style="edgeStyle=orthogonalEdgeStyle;rounded=0;orthogonalLoop=1;jettySize=auto;html=1;exitX=0;exitY=1;exitDx=0;exitDy=0;entryX=0.83;entryY=-0.025;entryDx=0;entryDy=0;entryPerimeter=0;endArrow=none;endFill=0;" edge="1" parent="1" source="dBJsbUOAqXaFhT0gafD--21" target="dBJsbUOAqXaFhT0gafD--1">
          <mxGeometry relative="1" as="geometry" />
        </mxCell>
        <mxCell id="dBJsbUOAqXaFhT0gafD--21" value="Password" style="ellipse;whiteSpace=wrap;html=1;align=center;" vertex="1" parent="1">
          <mxGeometry x="720" y="-70" width="100" height="40" as="geometry" />
        </mxCell>
        <mxCell id="dBJsbUOAqXaFhT0gafD--31" style="edgeStyle=orthogonalEdgeStyle;rounded=0;orthogonalLoop=1;jettySize=auto;html=1;entryX=1;entryY=0.25;entryDx=0;entryDy=0;endArrow=none;endFill=0;" edge="1" parent="1" source="dBJsbUOAqXaFhT0gafD--22" target="dBJsbUOAqXaFhT0gafD--1">
          <mxGeometry relative="1" as="geometry" />
        </mxCell>
        <mxCell id="dBJsbUOAqXaFhT0gafD--22" value="FullName" style="ellipse;whiteSpace=wrap;html=1;align=center;" vertex="1" parent="1">
          <mxGeometry x="750" width="100" height="40" as="geometry" />
        </mxCell>
        <mxCell id="dBJsbUOAqXaFhT0gafD--32" style="edgeStyle=orthogonalEdgeStyle;rounded=0;orthogonalLoop=1;jettySize=auto;html=1;exitX=0;exitY=0.5;exitDx=0;exitDy=0;entryX=1;entryY=0.75;entryDx=0;entryDy=0;endArrow=none;endFill=0;" edge="1" parent="1" source="dBJsbUOAqXaFhT0gafD--23" target="dBJsbUOAqXaFhT0gafD--1">
          <mxGeometry relative="1" as="geometry" />
        </mxCell>
        <mxCell id="dBJsbUOAqXaFhT0gafD--23" value="Gender" style="ellipse;whiteSpace=wrap;html=1;align=center;fontStyle=0" vertex="1" parent="1">
          <mxGeometry x="890" y="30" width="100" height="40" as="geometry" />
        </mxCell>
        <mxCell id="dBJsbUOAqXaFhT0gafD--25" value="Phone" style="ellipse;whiteSpace=wrap;html=1;align=center;fontStyle=0" vertex="1" parent="1">
          <mxGeometry x="990" y="140" width="100" height="40" as="geometry" />
        </mxCell>
        <mxCell id="dBJsbUOAqXaFhT0gafD--74" style="edgeStyle=orthogonalEdgeStyle;rounded=0;orthogonalLoop=1;jettySize=auto;html=1;exitX=0.5;exitY=1;exitDx=0;exitDy=0;entryX=0.5;entryY=0;entryDx=0;entryDy=0;endArrow=none;endFill=0;" edge="1" parent="1" source="dBJsbUOAqXaFhT0gafD--43" target="dBJsbUOAqXaFhT0gafD--69">
          <mxGeometry relative="1" as="geometry" />
        </mxCell>
        <mxCell id="dBJsbUOAqXaFhT0gafD--128" value="" style="edgeStyle=orthogonalEdgeStyle;rounded=0;orthogonalLoop=1;jettySize=auto;html=1;endArrow=none;endFill=0;" edge="1" parent="1" source="dBJsbUOAqXaFhT0gafD--43" target="dBJsbUOAqXaFhT0gafD--1">
          <mxGeometry relative="1" as="geometry" />
        </mxCell>
        <mxCell id="dBJsbUOAqXaFhT0gafD--129" value="" style="edgeStyle=orthogonalEdgeStyle;rounded=0;orthogonalLoop=1;jettySize=auto;html=1;endArrow=none;endFill=0;" edge="1" parent="1" source="dBJsbUOAqXaFhT0gafD--43" target="dBJsbUOAqXaFhT0gafD--1">
          <mxGeometry relative="1" as="geometry" />
        </mxCell>
        <mxCell id="dBJsbUOAqXaFhT0gafD--43" value="AddToCart" style="shape=rhombus;perimeter=rhombusPerimeter;whiteSpace=wrap;html=1;align=center;" vertex="1" parent="1">
          <mxGeometry x="690" y="325" width="120" height="60" as="geometry" />
        </mxCell>
        <mxCell id="dBJsbUOAqXaFhT0gafD--51" style="edgeStyle=orthogonalEdgeStyle;rounded=0;orthogonalLoop=1;jettySize=auto;html=1;exitX=0;exitY=0.5;exitDx=0;exitDy=0;entryX=0.75;entryY=1;entryDx=0;entryDy=0;endArrow=none;endFill=0;" edge="1" parent="1" source="dBJsbUOAqXaFhT0gafD--49" target="dBJsbUOAqXaFhT0gafD--1">
          <mxGeometry relative="1" as="geometry" />
        </mxCell>
        <mxCell id="dBJsbUOAqXaFhT0gafD--49" value="Shipping Addree" style="ellipse;shape=doubleEllipse;margin=3;whiteSpace=wrap;html=1;align=center;" vertex="1" parent="1">
          <mxGeometry x="970" y="90" width="120" height="40" as="geometry" />
        </mxCell>
        <mxCell id="dBJsbUOAqXaFhT0gafD--114" style="edgeStyle=orthogonalEdgeStyle;rounded=0;orthogonalLoop=1;jettySize=auto;html=1;exitX=0.25;exitY=1;exitDx=0;exitDy=0;endArrow=none;endFill=0;" edge="1" parent="1" source="dBJsbUOAqXaFhT0gafD--69" target="dBJsbUOAqXaFhT0gafD--113">
          <mxGeometry relative="1" as="geometry" />
        </mxCell>
        <mxCell id="dBJsbUOAqXaFhT0gafD--122" style="edgeStyle=orthogonalEdgeStyle;rounded=0;orthogonalLoop=1;jettySize=auto;html=1;exitX=1;exitY=0.25;exitDx=0;exitDy=0;entryX=0.5;entryY=1;entryDx=0;entryDy=0;endArrow=none;endFill=0;" edge="1" parent="1" source="dBJsbUOAqXaFhT0gafD--69" target="dBJsbUOAqXaFhT0gafD--80">
          <mxGeometry relative="1" as="geometry" />
        </mxCell>
        <mxCell id="dBJsbUOAqXaFhT0gafD--69" value="Product" style="rounded=1;arcSize=10;whiteSpace=wrap;html=1;align=center;fillColor=#dae8fc;strokeColor=#6c8ebf;" vertex="1" parent="1">
          <mxGeometry x="700" y="445" width="100" height="40" as="geometry" />
        </mxCell>
        <mxCell id="dBJsbUOAqXaFhT0gafD--78" value="N" style="resizable=0;html=1;align=right;verticalAlign=bottom;" connectable="0" vertex="1" parent="1">
          <mxGeometry x="740.0026286609349" y="425.0026471416801" as="geometry">
            <mxPoint x="7" y="1" as="offset" />
          </mxGeometry>
        </mxCell>
        <mxCell id="dBJsbUOAqXaFhT0gafD--79" value="N" style="resizable=0;html=1;align=right;verticalAlign=bottom;" connectable="0" vertex="1" parent="1">
          <mxGeometry x="550.0026286609349" y="413.0026471416801" as="geometry">
            <mxPoint x="-7" y="10" as="offset" />
          </mxGeometry>
        </mxCell>
        <mxCell id="dBJsbUOAqXaFhT0gafD--80" value="ProductID" style="ellipse;whiteSpace=wrap;html=1;align=center;fontStyle=4;" vertex="1" parent="1">
          <mxGeometry x="860" y="400" width="100" height="45" as="geometry" />
        </mxCell>
        <mxCell id="dBJsbUOAqXaFhT0gafD--87" style="edgeStyle=orthogonalEdgeStyle;rounded=0;orthogonalLoop=1;jettySize=auto;html=1;exitX=0;exitY=0.5;exitDx=0;exitDy=0;entryX=1;entryY=0.5;entryDx=0;entryDy=0;endArrow=none;endFill=0;" edge="1" parent="1" source="dBJsbUOAqXaFhT0gafD--81" target="dBJsbUOAqXaFhT0gafD--69">
          <mxGeometry relative="1" as="geometry" />
        </mxCell>
        <mxCell id="dBJsbUOAqXaFhT0gafD--81" value="Name" style="ellipse;whiteSpace=wrap;html=1;align=center;" vertex="1" parent="1">
          <mxGeometry x="820" y="470" width="100" height="40" as="geometry" />
        </mxCell>
        <mxCell id="dBJsbUOAqXaFhT0gafD--88" style="edgeStyle=orthogonalEdgeStyle;rounded=0;orthogonalLoop=1;jettySize=auto;html=1;exitX=0;exitY=0.5;exitDx=0;exitDy=0;entryX=0.83;entryY=1.05;entryDx=0;entryDy=0;entryPerimeter=0;endArrow=none;endFill=0;" edge="1" parent="1" source="dBJsbUOAqXaFhT0gafD--82" target="dBJsbUOAqXaFhT0gafD--69">
          <mxGeometry relative="1" as="geometry" />
        </mxCell>
        <mxCell id="dBJsbUOAqXaFhT0gafD--82" value="Price" style="ellipse;whiteSpace=wrap;html=1;align=center;" vertex="1" parent="1">
          <mxGeometry x="790" y="510" width="100" height="40" as="geometry" />
        </mxCell>
        <mxCell id="dBJsbUOAqXaFhT0gafD--90" style="edgeStyle=orthogonalEdgeStyle;rounded=0;orthogonalLoop=1;jettySize=auto;html=1;exitX=0;exitY=0;exitDx=0;exitDy=0;endArrow=none;endFill=0;" edge="1" parent="1" source="dBJsbUOAqXaFhT0gafD--83" target="dBJsbUOAqXaFhT0gafD--69">
          <mxGeometry relative="1" as="geometry" />
        </mxCell>
        <mxCell id="dBJsbUOAqXaFhT0gafD--83" value="Quantity" style="ellipse;whiteSpace=wrap;html=1;align=center;" vertex="1" parent="1">
          <mxGeometry x="720" y="560" width="100" height="40" as="geometry" />
        </mxCell>
        <mxCell id="dBJsbUOAqXaFhT0gafD--97" style="edgeStyle=orthogonalEdgeStyle;rounded=0;orthogonalLoop=1;jettySize=auto;html=1;exitX=0.5;exitY=1;exitDx=0;exitDy=0;entryX=0.6;entryY=0.025;entryDx=0;entryDy=0;entryPerimeter=0;endArrow=none;endFill=0;" edge="1" parent="1" source="dBJsbUOAqXaFhT0gafD--91" target="dBJsbUOAqXaFhT0gafD--92">
          <mxGeometry relative="1" as="geometry" />
        </mxCell>
        <mxCell id="dBJsbUOAqXaFhT0gafD--91" value="Submit" style="shape=rhombus;perimeter=rhombusPerimeter;whiteSpace=wrap;html=1;align=center;" vertex="1" parent="1">
          <mxGeometry x="470" y="325" width="120" height="60" as="geometry" />
        </mxCell>
        <mxCell id="dBJsbUOAqXaFhT0gafD--106" style="edgeStyle=orthogonalEdgeStyle;rounded=0;orthogonalLoop=1;jettySize=auto;html=1;exitX=1;exitY=0.25;exitDx=0;exitDy=0;entryX=0.5;entryY=0;entryDx=0;entryDy=0;endArrow=none;endFill=0;" edge="1" parent="1" source="dBJsbUOAqXaFhT0gafD--92" target="dBJsbUOAqXaFhT0gafD--103">
          <mxGeometry relative="1" as="geometry" />
        </mxCell>
        <mxCell id="dBJsbUOAqXaFhT0gafD--109" style="edgeStyle=orthogonalEdgeStyle;rounded=0;orthogonalLoop=1;jettySize=auto;html=1;exitX=0.75;exitY=1;exitDx=0;exitDy=0;entryX=0.5;entryY=0;entryDx=0;entryDy=0;endArrow=none;endFill=0;" edge="1" parent="1" source="dBJsbUOAqXaFhT0gafD--92" target="dBJsbUOAqXaFhT0gafD--104">
          <mxGeometry relative="1" as="geometry" />
        </mxCell>
        <mxCell id="dBJsbUOAqXaFhT0gafD--110" style="edgeStyle=orthogonalEdgeStyle;rounded=0;orthogonalLoop=1;jettySize=auto;html=1;exitX=0.25;exitY=1;exitDx=0;exitDy=0;entryX=1;entryY=0;entryDx=0;entryDy=0;endArrow=none;endFill=0;" edge="1" parent="1" source="dBJsbUOAqXaFhT0gafD--92" target="dBJsbUOAqXaFhT0gafD--105">
          <mxGeometry relative="1" as="geometry" />
        </mxCell>
        <mxCell id="dBJsbUOAqXaFhT0gafD--92" value="Order" style="rounded=1;arcSize=10;whiteSpace=wrap;html=1;align=center;fillColor=#dae8fc;strokeColor=#6c8ebf;" vertex="1" parent="1">
          <mxGeometry x="470" y="445" width="100" height="40" as="geometry" />
        </mxCell>
        <mxCell id="dBJsbUOAqXaFhT0gafD--98" value="N" style="resizable=0;html=1;align=right;verticalAlign=bottom;" connectable="0" vertex="1" parent="1">
          <mxGeometry x="740.0026286609349" y="310.0026471416801" as="geometry">
            <mxPoint x="9" y="8" as="offset" />
          </mxGeometry>
        </mxCell>
        <mxCell id="dBJsbUOAqXaFhT0gafD--100" style="edgeStyle=orthogonalEdgeStyle;rounded=0;orthogonalLoop=1;jettySize=auto;html=1;exitX=0;exitY=1;exitDx=0;exitDy=0;entryX=1;entryY=0.25;entryDx=0;entryDy=0;endArrow=none;endFill=0;" edge="1" parent="1" source="dBJsbUOAqXaFhT0gafD--99" target="dBJsbUOAqXaFhT0gafD--92">
          <mxGeometry relative="1" as="geometry" />
        </mxCell>
        <mxCell id="dBJsbUOAqXaFhT0gafD--99" value="OrderID" style="ellipse;whiteSpace=wrap;html=1;align=center;fontStyle=4;" vertex="1" parent="1">
          <mxGeometry x="570" y="393" width="100" height="40" as="geometry" />
        </mxCell>
        <mxCell id="dBJsbUOAqXaFhT0gafD--103" value="Address" style="ellipse;whiteSpace=wrap;html=1;align=center;" vertex="1" parent="1">
          <mxGeometry x="580" y="485" width="100" height="40" as="geometry" />
        </mxCell>
        <mxCell id="dBJsbUOAqXaFhT0gafD--104" value="Payment Method" style="ellipse;whiteSpace=wrap;html=1;align=center;" vertex="1" parent="1">
          <mxGeometry x="520" y="535" width="100" height="40" as="geometry" />
        </mxCell>
        <mxCell id="dBJsbUOAqXaFhT0gafD--105" value="&lt;div&gt;Deliver Date&lt;/div&gt;" style="ellipse;whiteSpace=wrap;html=1;align=center;" vertex="1" parent="1">
          <mxGeometry x="410" y="525" width="100" height="40" as="geometry" />
        </mxCell>
        <mxCell id="dBJsbUOAqXaFhT0gafD--111" value="PaymentInvoice" style="ellipse;whiteSpace=wrap;html=1;align=center;" vertex="1" parent="1">
          <mxGeometry x="340" y="455" width="100" height="40" as="geometry" />
        </mxCell>
        <mxCell id="dBJsbUOAqXaFhT0gafD--133" style="edgeStyle=orthogonalEdgeStyle;rounded=0;orthogonalLoop=1;jettySize=auto;html=1;exitX=0.25;exitY=1;exitDx=0;exitDy=0;entryX=1;entryY=0.5;entryDx=0;entryDy=0;endArrow=none;endFill=0;" edge="1" parent="1" source="dBJsbUOAqXaFhT0gafD--112" target="dBJsbUOAqXaFhT0gafD--132">
          <mxGeometry relative="1" as="geometry" />
        </mxCell>
        <mxCell id="dBJsbUOAqXaFhT0gafD--112" value="Category" style="rounded=1;arcSize=10;whiteSpace=wrap;html=1;align=center;fillColor=#dae8fc;strokeColor=#6c8ebf;" vertex="1" parent="1">
          <mxGeometry x="650" y="720" width="100" height="40" as="geometry" />
        </mxCell>
        <mxCell id="dBJsbUOAqXaFhT0gafD--115" style="edgeStyle=orthogonalEdgeStyle;rounded=0;orthogonalLoop=1;jettySize=auto;html=1;exitX=0.5;exitY=1;exitDx=0;exitDy=0;entryX=0.5;entryY=0;entryDx=0;entryDy=0;endArrow=none;endFill=0;" edge="1" parent="1" source="dBJsbUOAqXaFhT0gafD--113" target="dBJsbUOAqXaFhT0gafD--112">
          <mxGeometry relative="1" as="geometry" />
        </mxCell>
        <mxCell id="dBJsbUOAqXaFhT0gafD--113" value="Contains" style="shape=rhombus;perimeter=rhombusPerimeter;whiteSpace=wrap;html=1;align=center;" vertex="1" parent="1">
          <mxGeometry x="640" y="610" width="120" height="60" as="geometry" />
        </mxCell>
        <mxCell id="dBJsbUOAqXaFhT0gafD--116" value="N" style="resizable=0;html=1;align=right;verticalAlign=bottom;" connectable="0" vertex="1" parent="1">
          <mxGeometry x="720.0026286609349" y="590.0026471416801" as="geometry">
            <mxPoint x="-7" y="10" as="offset" />
          </mxGeometry>
        </mxCell>
        <mxCell id="dBJsbUOAqXaFhT0gafD--119" style="edgeStyle=orthogonalEdgeStyle;rounded=0;orthogonalLoop=1;jettySize=auto;html=1;exitX=0;exitY=0.5;exitDx=0;exitDy=0;entryX=1;entryY=0.5;entryDx=0;entryDy=0;endArrow=none;endFill=0;" edge="1" parent="1" source="dBJsbUOAqXaFhT0gafD--117" target="dBJsbUOAqXaFhT0gafD--112">
          <mxGeometry relative="1" as="geometry" />
        </mxCell>
        <mxCell id="dBJsbUOAqXaFhT0gafD--117" value="CategoryID" style="ellipse;whiteSpace=wrap;html=1;align=center;fontStyle=4;" vertex="1" parent="1">
          <mxGeometry x="780" y="690" width="100" height="40" as="geometry" />
        </mxCell>
        <mxCell id="dBJsbUOAqXaFhT0gafD--120" style="edgeStyle=orthogonalEdgeStyle;rounded=0;orthogonalLoop=1;jettySize=auto;html=1;exitX=0;exitY=0.5;exitDx=0;exitDy=0;entryX=0.9;entryY=0.975;entryDx=0;entryDy=0;entryPerimeter=0;endArrow=none;endFill=0;" edge="1" parent="1" source="dBJsbUOAqXaFhT0gafD--118" target="dBJsbUOAqXaFhT0gafD--112">
          <mxGeometry relative="1" as="geometry" />
        </mxCell>
        <mxCell id="dBJsbUOAqXaFhT0gafD--118" value="&lt;div&gt;CategoryName&lt;/div&gt;" style="ellipse;whiteSpace=wrap;html=1;align=center;" vertex="1" parent="1">
          <mxGeometry x="790" y="760" width="100" height="40" as="geometry" />
        </mxCell>
        <mxCell id="dBJsbUOAqXaFhT0gafD--127" style="edgeStyle=orthogonalEdgeStyle;rounded=0;orthogonalLoop=1;jettySize=auto;html=1;exitX=0.5;exitY=1;exitDx=0;exitDy=0;entryX=0.75;entryY=0;entryDx=0;entryDy=0;endArrow=none;endFill=0;" edge="1" parent="1" source="dBJsbUOAqXaFhT0gafD--121" target="dBJsbUOAqXaFhT0gafD--69">
          <mxGeometry relative="1" as="geometry" />
        </mxCell>
        <mxCell id="dBJsbUOAqXaFhT0gafD--121" value="RateAndComment" style="shape=rhombus;perimeter=rhombusPerimeter;whiteSpace=wrap;html=1;align=center;" vertex="1" parent="1">
          <mxGeometry x="920" y="280" width="120" height="60" as="geometry" />
        </mxCell>
        <mxCell id="dBJsbUOAqXaFhT0gafD--130" value="N" style="resizable=0;html=1;align=right;verticalAlign=bottom;" connectable="0" vertex="1" parent="1">
          <mxGeometry x="990.0026286609349" y="270.0026471416801" as="geometry">
            <mxPoint x="7" y="1" as="offset" />
          </mxGeometry>
        </mxCell>
        <mxCell id="dBJsbUOAqXaFhT0gafD--131" value="N" style="resizable=0;html=1;align=right;verticalAlign=bottom;" connectable="0" vertex="1" parent="1">
          <mxGeometry x="760.0026286609349" y="445.0026471416801" as="geometry">
            <mxPoint x="236" y="-86" as="offset" />
          </mxGeometry>
        </mxCell>
        <mxCell id="dBJsbUOAqXaFhT0gafD--134" style="edgeStyle=orthogonalEdgeStyle;rounded=0;orthogonalLoop=1;jettySize=auto;html=1;exitX=0;exitY=0.5;exitDx=0;exitDy=0;entryX=0;entryY=0.25;entryDx=0;entryDy=0;endArrow=none;endFill=0;" edge="1" parent="1" source="dBJsbUOAqXaFhT0gafD--132" target="dBJsbUOAqXaFhT0gafD--112">
          <mxGeometry relative="1" as="geometry" />
        </mxCell>
        <mxCell id="dBJsbUOAqXaFhT0gafD--132" value="ParentOf" style="shape=rhombus;perimeter=rhombusPerimeter;whiteSpace=wrap;html=1;align=center;" vertex="1" parent="1">
          <mxGeometry x="510" y="770" width="120" height="60" as="geometry" />
        </mxCell>
      </root>
    </mxGraphModel>
  </diagram>
</mxfile>
